<svg xmlns="http://www.w3.org/2000/svg" width="1816.907" height="232.171" viewBox="0 0 1816.907 232.171"><g transform="translate(0.5 0.503)"><path d="M171.832,280.887H30.249V50.272H80.388V238.148h91.444Z" transform="translate(578.967 -50.042)"/><path d="M-4794.663-1608.849l-38.33-151.367s-3.988-18.784-16.674-19.188c-12.686.4-16.673,19.188-16.673,19.188l-38.33,151.367H-4959s33.63-115.778,49.82-175.217c15.463-56.765,59.513-55.782,59.513-55.782s44.051-.983,59.513,55.782c16.191,59.439,49.821,175.217,49.821,175.217Z" transform="translate(5757.574 1839.849)" stroke="rgba(0,0,0,0)" stroke-width="1"/><path d="M185.767,93.66H126.788V281.272H76.494V93.66H17.826V50.272H185.767Z" transform="translate(1274.73 -50.272)"/><path d="M94.14,51.379V282.392H43.847V51.379Z" transform="translate(1474.328 -51.379)"/><path d="M214.192,278.674h-90.7c-34.15,0-56.5-3.254-76.054-23.209S18.1,199.956,18.1,166.732q0-53.076,32.986-86.094C73.078,58.626,97.1,47.62,132.186,47.62h81.782V90.907H136.222c-20.9,0-37.772,8.387-50.6,21.45s-19.54,34.9-19.248,55.325,6.054,40.661,18.162,53.364,28.407,14.111,48.9,14.111h36.725V175.3l43.815.195Z" transform="translate(334.136 -47.606)"/><path d="M-4959-1606.832v-43.356h77.5a74.171,74.171,0,0,0,52.3-21.648c6.418-6.658,20.606-20.378,20.627-50.581-.021-30.2-14.208-43.922-20.627-50.581a74.177,74.177,0,0,0-52.3-21.646H-4959V-1838h77.5c37.463,0,63.621,8.859,85.611,31.111,20.778,21.023,33.6,43.839,34.85,79.879.067.982.1,4.007.095,4.48,0,.006-.007.016-.023.03.016.014.023.024.023.03s-.015.026-.045.053c.03.027.045.045.045.053s-.007.016-.023.03c.016.015.023.025.023.031,0,.472-.027,3.5-.095,4.479-1.248,36.041-14.072,58.857-34.85,79.88-21.99,22.251-48.147,31.111-85.611,31.111Z" transform="translate(4959 1838)" stroke="rgba(0,0,0,0)" stroke-width="1"/><path d="M94.14,51.379V282.392H43.847V51.379Z" transform="translate(204.599 -51.379)"/><path d="M198.052,0V43.356h-77.5A74.171,74.171,0,0,0,68.259,65c-6.418,6.658-20.606,20.378-20.627,50.581.021,30.2,14.208,43.922,20.627,50.581a74.177,74.177,0,0,0,52.3,21.646h77.5v43.356h-77.5c-37.463,0-63.621-8.859-85.611-31.111C14.167,179.034,1.343,156.218.1,120.178.028,119.2,0,116.171,0,115.7c0-.006.007-.016.023-.03-.016-.014-.023-.024-.023-.03s.015-.026.045-.053c-.03-.027-.045-.045-.045-.053s.007-.016.023-.03c-.016-.015-.023-.025-.023-.031,0-.472.027-3.5.095-4.479,1.248-36.041,14.072-58.857,34.85-79.88C56.935,8.86,83.092,0,120.556,0Z" transform="translate(1054.189)" stroke="rgba(0,0,0,0)" stroke-width="1"/><path d="M198.052,0V43.356h-77.5A74.171,74.171,0,0,0,68.259,65c-6.418,6.658-20.606,20.378-20.627,50.581.021,30.2,14.208,43.922,20.627,50.581a74.177,74.177,0,0,0,52.3,21.646h77.5v43.356h-77.5c-37.463,0-63.621-8.859-85.611-31.111C14.167,179.034,1.343,156.218.1,120.178.028,119.2,0,116.171,0,115.7c0-.006.007-.016.023-.03-.016-.014-.023-.024-.023-.03s.015-.026.045-.053c-.03-.027-.045-.045-.045-.053s.007-.016.023-.03c-.016-.015-.023-.025-.023-.031,0-.472.027-3.5.095-4.479,1.248-36.041,14.072-58.857,34.85-79.88C56.935,8.86,83.092,0,120.556,0Z" transform="translate(1617.855)" stroke="rgba(0,0,0,0)" stroke-width="1"/></g></svg>
